<svg xmlns="http://www.w3.org/2000/svg" version="1.1" xmlns:xlink="http://www.w3.org/1999/xlink" xmlns:svgjs="http://svgjs.dev/svgjs" width="2000" height="837" viewBox="0 0 2000 837"><g transform="matrix(1,0,0,1,0.21333333333336668,-0.504679012738734)"><svg viewBox="0 0 375 157" data-background-color="#c8c8c8" preserveAspectRatio="xMidYMid meet" height="837" width="2000" xmlns="http://www.w3.org/2000/svg" xmlns:xlink="http://www.w3.org/1999/xlink"><g id="tight-bounds" transform="matrix(1,0,0,1,-0.03976000000000113,0.0946649999999778)"><svg viewBox="0 0 375.07953 156.81067000000004" height="156.81067000000004" width="375.07953"><g><svg></svg></g><g><svg viewBox="0 0 375.07953 156.81067000000004" height="156.81067000000004" width="375.07953"><g transform="matrix(1,0,0,1,-10.22024,-47.73669000000001)"><path d="M10.22 199.463v-151.726h375.08v151.726l-25.225 0 0-4.866h20.358v-141.994h-365.346v141.994h20.358l0 4.866z" fill="#000000" fill-rule="nonzero" stroke="none" stroke-width="1" stroke-linecap="butt" stroke-linejoin="miter" stroke-miterlimit="10" stroke-dasharray="" stroke-dashoffset="0" font-family="none" font-weight="none" font-size="none" text-anchor="none" style="mix-blend-mode: normal" data-fill-palette-color="tertiary"></path><g><path d="M59.093 204.269h-2.561c-0.186 0-0.343-0.065-0.474-0.195-0.13-0.13-0.195-0.288-0.195-0.473v0-15.397h-5.15c-0.186 0-0.343-0.065-0.474-0.195-0.13-0.13-0.195-0.288-0.195-0.473v0-2.06c0-0.204 0.065-0.371 0.195-0.502 0.13-0.13 0.288-0.195 0.474-0.194v0h14.199c0.204 0 0.371 0.065 0.501 0.194 0.13 0.13 0.195 0.297 0.195 0.502v0 2.06c0 0.186-0.065 0.343-0.195 0.473-0.13 0.13-0.297 0.195-0.501 0.195v0h-5.123v15.397c0 0.186-0.065 0.343-0.195 0.473-0.13 0.13-0.297 0.195-0.501 0.195zM72.29 204.547v0c-0.965 0-1.838-0.191-2.617-0.573-0.78-0.379-1.396-0.889-1.849-1.532-0.457-0.639-0.685-1.357-0.685-2.154v0c0-1.299 0.529-2.335 1.587-3.108 1.058-0.768 2.441-1.283 4.149-1.542v0l3.814-0.557v-0.585c0-0.78-0.195-1.383-0.584-1.809-0.39-0.427-1.058-0.64-2.005-0.641v0c-0.668 0-1.212 0.134-1.632 0.401-0.416 0.271-0.726 0.629-0.93 1.075v0c-0.148 0.241-0.362 0.362-0.64 0.362v0h-2.199c-0.204 0-0.356-0.056-0.457-0.167-0.104-0.111-0.156-0.26-0.156-0.446v0c0.019-0.297 0.145-0.659 0.379-1.085 0.23-0.427 0.583-0.841 1.058-1.242 0.471-0.397 1.088-0.735 1.848-1.014 0.761-0.278 1.68-0.418 2.757-0.417v0c1.169 0 2.159 0.143 2.968 0.428 0.806 0.29 1.45 0.676 1.932 1.159 0.483 0.483 0.835 1.049 1.058 1.698 0.223 0.65 0.334 1.336 0.334 2.06v0 8.743c0 0.186-0.065 0.343-0.195 0.473-0.13 0.13-0.288 0.195-0.473 0.195v0h-2.255c-0.204 0-0.366-0.065-0.485-0.195-0.122-0.13-0.184-0.288-0.184-0.473v0-1.086c-0.241 0.334-0.566 0.659-0.974 0.974-0.408 0.316-0.904 0.57-1.487 0.763-0.587 0.197-1.279 0.295-2.077 0.295zM73.237 201.902v0c0.65 0 1.24-0.139 1.771-0.417 0.527-0.278 0.945-0.711 1.252-1.298 0.304-0.583 0.457-1.32 0.457-2.21v0-0.585l-2.784 0.445c-1.095 0.167-1.912 0.436-2.45 0.808-0.538 0.371-0.807 0.826-0.808 1.364v0c0 0.408 0.126 0.755 0.379 1.041 0.249 0.29 0.568 0.503 0.958 0.641 0.39 0.141 0.798 0.212 1.225 0.211zM89.469 204.547v0c-1.114 0-2.064-0.13-2.851-0.389-0.791-0.26-1.437-0.585-1.938-0.975-0.501-0.39-0.872-0.78-1.114-1.169-0.241-0.39-0.371-0.715-0.39-0.975v0c-0.019-0.204 0.041-0.368 0.179-0.49 0.141-0.119 0.295-0.178 0.462-0.178v0h2.199c0.074 0 0.139 0.009 0.195 0.028 0.056 0.019 0.13 0.074 0.223 0.167v0c0.241 0.204 0.497 0.418 0.768 0.64 0.267 0.223 0.587 0.412 0.958 0.568 0.371 0.16 0.835 0.239 1.392 0.24v0c0.724 0 1.333-0.145 1.827-0.435 0.49-0.286 0.735-0.698 0.735-1.236v0c0-0.39-0.106-0.705-0.318-0.946-0.215-0.241-0.611-0.46-1.186-0.657-0.575-0.193-1.392-0.401-2.45-0.624v0c-1.039-0.241-1.903-0.548-2.589-0.919-0.687-0.371-1.197-0.835-1.531-1.392-0.334-0.557-0.501-1.206-0.502-1.949v0c0-0.724 0.217-1.416 0.652-2.077 0.438-0.657 1.088-1.199 1.949-1.626 0.865-0.427 1.938-0.64 3.218-0.64v0c1.002 0 1.875 0.124 2.617 0.373 0.742 0.252 1.361 0.564 1.855 0.935 0.49 0.371 0.865 0.746 1.125 1.125 0.26 0.382 0.399 0.713 0.417 0.991v0c0.019 0.204-0.037 0.366-0.167 0.485-0.13 0.122-0.278 0.184-0.445 0.183v0h-2.061c-0.093 0-0.176-0.019-0.25-0.055-0.074-0.037-0.148-0.084-0.223-0.139v0c-0.204-0.186-0.427-0.386-0.668-0.602-0.241-0.212-0.533-0.392-0.874-0.54-0.345-0.148-0.796-0.223-1.354-0.223v0c-0.705 0-1.244 0.152-1.614 0.457-0.371 0.308-0.557 0.694-0.557 1.158v0c0 0.316 0.087 0.59 0.262 0.824 0.178 0.23 0.536 0.447 1.074 0.652 0.538 0.204 1.355 0.418 2.45 0.64v0c1.244 0.223 2.231 0.551 2.963 0.986 0.735 0.438 1.255 0.939 1.559 1.503 0.308 0.568 0.462 1.195 0.462 1.882v0c0 0.835-0.247 1.587-0.741 2.256-0.49 0.668-1.212 1.192-2.166 1.57-0.958 0.382-2.142 0.574-3.552 0.573zM107.594 204.269h-2.255c-1.114 0-2.051-0.195-2.812-0.585-0.761-0.39-1.327-0.969-1.699-1.737-0.371-0.772-0.557-1.734-0.557-2.885v0-6.32h-2.199c-0.186 0-0.343-0.065-0.473-0.195-0.13-0.13-0.195-0.297-0.195-0.501v0-1.587c0-0.186 0.065-0.343 0.195-0.473 0.13-0.13 0.288-0.195 0.473-0.195v0h2.199v-4.622c0-0.186 0.061-0.343 0.184-0.473 0.119-0.13 0.28-0.195 0.485-0.195v0h2.255c0.186 0 0.343 0.065 0.473 0.195 0.13 0.13 0.195 0.288 0.195 0.473v0 4.622h3.48c0.186 0 0.343 0.065 0.474 0.195 0.13 0.13 0.195 0.288 0.194 0.473v0 1.587c0 0.204-0.065 0.371-0.194 0.501-0.13 0.13-0.288 0.195-0.474 0.195v0h-3.48v6.042c0 0.761 0.136 1.355 0.406 1.782 0.267 0.427 0.735 0.64 1.404 0.64v0h1.921c0.186 0 0.343 0.065 0.473 0.195 0.13 0.13 0.195 0.288 0.195 0.474v0 1.726c0 0.186-0.065 0.343-0.195 0.473-0.13 0.13-0.288 0.195-0.473 0.195zM116.977 204.547v0c-2.06 0-3.694-0.594-4.901-1.782-1.206-1.188-1.856-2.877-1.949-5.067v0c-0.019-0.186-0.028-0.423-0.027-0.713 0-0.286 0.009-0.512 0.027-0.679v0c0.074-1.411 0.395-2.623 0.964-3.636 0.564-1.01 1.348-1.789 2.35-2.339 1.002-0.546 2.181-0.819 3.536-0.818v0c1.503 0 2.766 0.31 3.786 0.93 1.021 0.624 1.791 1.487 2.311 2.589 0.52 1.106 0.78 2.383 0.779 3.831v0 0.585c0 0.186-0.065 0.343-0.194 0.473-0.13 0.13-0.297 0.195-0.502 0.195v0h-9.243c0 0 0 0.028 0 0.083 0 0.056 0 0.102 0 0.14v0c0.019 0.65 0.145 1.247 0.379 1.793 0.23 0.549 0.574 0.991 1.03 1.325 0.453 0.334 0.995 0.501 1.626 0.501v0c0.52 0 0.956-0.08 1.308-0.239 0.353-0.156 0.64-0.336 0.863-0.541 0.223-0.204 0.381-0.371 0.474-0.501v0c0.167-0.223 0.303-0.358 0.406-0.406 0.1-0.045 0.252-0.067 0.457-0.067v0h2.394c0.186 0 0.34 0.056 0.462 0.167 0.119 0.111 0.169 0.251 0.151 0.418v0c-0.019 0.297-0.171 0.659-0.457 1.086-0.29 0.427-0.703 0.845-1.242 1.252-0.538 0.408-1.21 0.746-2.015 1.014-0.809 0.271-1.734 0.406-2.773 0.406zM113.914 195.694v0.083h6.153v-0.083c0-0.724-0.121-1.359-0.362-1.905-0.241-0.549-0.594-0.978-1.058-1.286-0.464-0.304-1.021-0.457-1.67-0.457v0c-0.65 0-1.206 0.152-1.671 0.457-0.464 0.308-0.811 0.737-1.041 1.286-0.234 0.546-0.351 1.181-0.351 1.905zM141.004 204.547v0c-1.652 0-3.072-0.275-4.26-0.824-1.188-0.546-2.116-1.39-2.784-2.533-0.668-1.14-1.03-2.563-1.086-4.271v0c-0.019-0.798-0.028-1.587-0.028-2.367 0-0.78 0.009-1.578 0.028-2.394v0c0.056-1.689 0.427-3.1 1.114-4.232 0.687-1.132 1.628-1.986 2.823-2.562 1.199-0.575 2.597-0.863 4.193-0.863v0c1.596 0 2.998 0.288 4.204 0.863 1.206 0.575 2.153 1.429 2.84 2.562 0.687 1.132 1.058 2.543 1.114 4.232v0c0.037 0.817 0.056 1.615 0.056 2.394 0 0.78-0.019 1.568-0.056 2.367v0c-0.056 1.708-0.418 3.131-1.086 4.271-0.668 1.143-1.6 1.988-2.795 2.533-1.199 0.549-2.625 0.824-4.277 0.824zM141.004 201.346v0c1.206 0 2.19-0.358 2.951-1.075 0.761-0.713 1.169-1.877 1.225-3.492v0c0.037-0.817 0.056-1.574 0.056-2.271 0-0.694-0.019-1.44-0.056-2.239v0c-0.037-1.077-0.236-1.955-0.595-2.634-0.364-0.676-0.852-1.168-1.465-1.475-0.613-0.304-1.318-0.457-2.116-0.457v0c-0.78 0-1.476 0.152-2.088 0.457-0.613 0.308-1.099 0.8-1.459 1.475-0.364 0.679-0.564 1.557-0.601 2.634v0c-0.019 0.798-0.028 1.544-0.028 2.239 0 0.698 0.009 1.455 0.028 2.271v0c0.056 1.615 0.464 2.779 1.225 3.492 0.761 0.716 1.735 1.075 2.923 1.075zM157.041 204.269h-2.283c-0.186 0-0.343-0.065-0.473-0.195-0.13-0.13-0.195-0.288-0.195-0.473v0-10.859h-2.255c-0.186 0-0.343-0.065-0.474-0.195-0.13-0.13-0.195-0.297-0.195-0.501v0-1.587c0-0.186 0.065-0.343 0.195-0.473 0.13-0.13 0.288-0.195 0.474-0.195v0h2.255v-1.141c0-1.114 0.204-2.036 0.612-2.768 0.408-0.735 1.012-1.288 1.81-1.659 0.798-0.371 1.81-0.557 3.035-0.557v0h1.893c0.204 0 0.368 0.065 0.49 0.195 0.119 0.13 0.178 0.288 0.178 0.473v0 1.587c0 0.204-0.059 0.371-0.178 0.501-0.122 0.13-0.286 0.195-0.49 0.195v0h-1.782c-0.742 0-1.253 0.186-1.531 0.557-0.278 0.371-0.418 0.909-0.418 1.615v0 1.002h3.453c0.204 0 0.368 0.065 0.49 0.195 0.119 0.13 0.178 0.288 0.178 0.473v0 1.587c0 0.204-0.059 0.371-0.178 0.501-0.122 0.13-0.286 0.195-0.49 0.195v0h-3.453v10.859c0 0.186-0.065 0.343-0.195 0.473-0.13 0.13-0.288 0.195-0.473 0.195zM178.285 204.547v0c-1.726 0-3.187-0.303-4.383-0.907-1.199-0.601-2.114-1.464-2.745-2.59-0.631-1.121-0.984-2.471-1.058-4.048v0c-0.019-0.761-0.028-1.578-0.028-2.45 0-0.872 0.009-1.708 0.028-2.506v0c0.074-1.559 0.432-2.905 1.075-4.037 0.639-1.132 1.557-2.001 2.756-2.606 1.195-0.601 2.647-0.902 4.355-0.902v0c1.262 0 2.394 0.167 3.396 0.501 1.002 0.334 1.856 0.793 2.562 1.376 0.705 0.587 1.253 1.27 1.642 2.049 0.39 0.78 0.594 1.624 0.613 2.533v0c0.019 0.167-0.032 0.306-0.15 0.418-0.122 0.111-0.267 0.167-0.435 0.167v0h-2.645c-0.204 0-0.371-0.052-0.501-0.156-0.13-0.1-0.223-0.271-0.278-0.512v0c-0.297-1.225-0.807-2.06-1.532-2.506-0.724-0.445-1.624-0.668-2.7-0.668v0c-1.244 0-2.237 0.347-2.979 1.041-0.742 0.698-1.142 1.845-1.198 3.442v0c-0.056 1.522-0.056 3.081 0 4.677v0c0.056 1.596 0.455 2.742 1.198 3.436 0.742 0.698 1.735 1.047 2.979 1.047v0c1.077 0 1.982-0.228 2.717-0.685 0.731-0.453 1.236-1.283 1.515-2.489v0c0.056-0.26 0.148-0.436 0.278-0.529 0.13-0.093 0.297-0.139 0.501-0.14v0h2.645c0.167 0 0.312 0.056 0.435 0.167 0.119 0.111 0.169 0.251 0.15 0.418v0c-0.019 0.909-0.223 1.754-0.613 2.534-0.39 0.78-0.937 1.461-1.642 2.043-0.705 0.587-1.559 1.047-2.562 1.381-1.002 0.334-2.135 0.501-3.396 0.501zM192.651 204.269h-2.478c-0.186 0-0.343-0.065-0.473-0.195-0.13-0.13-0.195-0.288-0.195-0.473v0-18.432c0-0.186 0.065-0.343 0.195-0.473 0.13-0.13 0.288-0.195 0.473-0.195v0h2.478c0.204 0 0.368 0.065 0.49 0.195 0.119 0.13 0.178 0.288 0.178 0.473v0 6.348c0.501-0.594 1.114-1.077 1.838-1.447 0.724-0.371 1.615-0.557 2.673-0.557v0c1.132 0 2.122 0.254 2.968 0.763 0.843 0.512 1.496 1.232 1.96 2.16 0.464 0.928 0.696 2.042 0.696 3.341v0 7.824c0 0.186-0.065 0.343-0.195 0.473-0.13 0.13-0.288 0.195-0.474 0.195v0h-2.505c-0.186 0-0.343-0.065-0.474-0.195-0.13-0.13-0.195-0.288-0.195-0.473v0-7.657c0-1.077-0.265-1.921-0.796-2.533-0.527-0.613-1.292-0.919-2.294-0.919v0c-0.965 0-1.741 0.306-2.328 0.919-0.583 0.613-0.874 1.457-0.874 2.533v0 7.657c0 0.186-0.059 0.343-0.178 0.473-0.122 0.13-0.286 0.195-0.49 0.195zM211.194 204.547v0c-0.965 0-1.838-0.191-2.617-0.573-0.78-0.379-1.398-0.889-1.855-1.532-0.453-0.639-0.679-1.357-0.679-2.154v0c0-1.299 0.529-2.335 1.587-3.108 1.058-0.768 2.441-1.283 4.148-1.542v0l3.815-0.557v-0.585c0-0.78-0.195-1.383-0.585-1.809-0.39-0.427-1.058-0.64-2.005-0.641v0c-0.668 0-1.21 0.134-1.625 0.401-0.419 0.271-0.731 0.629-0.936 1.075v0c-0.148 0.241-0.362 0.362-0.64 0.362v0h-2.2c-0.204 0-0.358-0.056-0.462-0.167-0.1-0.111-0.15-0.26-0.15-0.446v0c0.019-0.297 0.145-0.659 0.378-1.085 0.23-0.427 0.581-0.841 1.053-1.242 0.475-0.397 1.093-0.735 1.854-1.014 0.761-0.278 1.68-0.418 2.756-0.417v0c1.169 0 2.159 0.143 2.968 0.428 0.806 0.29 1.45 0.676 1.933 1.159 0.483 0.483 0.835 1.049 1.057 1.698 0.223 0.65 0.334 1.336 0.335 2.06v0 8.743c0 0.186-0.065 0.343-0.195 0.473-0.13 0.13-0.288 0.195-0.474 0.195v0h-2.255c-0.204 0-0.368-0.065-0.49-0.195-0.119-0.13-0.178-0.288-0.178-0.473v0-1.086c-0.241 0.334-0.566 0.659-0.974 0.974-0.408 0.316-0.906 0.57-1.493 0.763-0.583 0.197-1.273 0.295-2.071 0.295zM212.14 201.902v0c0.65 0 1.24-0.139 1.771-0.417 0.527-0.278 0.945-0.711 1.253-1.298 0.304-0.583 0.457-1.32 0.457-2.21v0-0.585l-2.785 0.445c-1.095 0.167-1.912 0.436-2.45 0.808-0.538 0.371-0.807 0.826-0.807 1.364v0c0 0.408 0.124 0.755 0.373 1.041 0.252 0.29 0.574 0.503 0.963 0.641 0.39 0.141 0.798 0.212 1.225 0.211zM225.866 204.269h-2.31c-0.186 0-0.343-0.065-0.474-0.195-0.13-0.13-0.195-0.288-0.195-0.473v0-13.142c0-0.186 0.065-0.343 0.195-0.473 0.13-0.13 0.288-0.195 0.474-0.195v0h2.31c0.204 0 0.366 0.065 0.485 0.195 0.122 0.13 0.184 0.288 0.184 0.473v0 13.142c0 0.186-0.061 0.343-0.184 0.473-0.119 0.13-0.28 0.195-0.485 0.195zM225.978 187.397h-2.534c-0.186 0-0.343-0.065-0.473-0.195-0.13-0.13-0.195-0.288-0.195-0.474v0-2.004c0-0.186 0.065-0.343 0.195-0.473 0.13-0.13 0.288-0.195 0.473-0.195v0h2.534c0.204 0 0.371 0.065 0.501 0.195 0.13 0.13 0.195 0.288 0.195 0.473v0 2.004c0 0.186-0.065 0.343-0.195 0.474-0.13 0.13-0.297 0.195-0.501 0.195zM240.233 204.269h-2.617c-0.186 0-0.343-0.065-0.474-0.195-0.13-0.13-0.195-0.288-0.194-0.473v0-18.153c0-0.186 0.065-0.343 0.194-0.474 0.13-0.13 0.288-0.195 0.474-0.194v0h2.617c0.204 0 0.366 0.065 0.484 0.194 0.122 0.13 0.184 0.288 0.184 0.474v0 18.153c0 0.186-0.061 0.343-0.184 0.473-0.119 0.13-0.28 0.195-0.484 0.195zM248.056 204.269h-2.45c-0.186 0-0.343-0.065-0.473-0.195-0.13-0.13-0.195-0.288-0.195-0.473v0-13.142c0-0.186 0.065-0.343 0.195-0.473 0.13-0.13 0.288-0.195 0.473-0.195v0h2.283c0.186 0 0.343 0.065 0.474 0.195 0.13 0.13 0.195 0.288 0.195 0.473v0 1.142c0.483-0.594 1.099-1.091 1.848-1.492 0.754-0.397 1.687-0.596 2.801-0.596v0c1.132 0 2.116 0.254 2.952 0.763 0.835 0.512 1.479 1.232 1.932 2.16 0.457 0.928 0.685 2.042 0.685 3.341v0 7.824c0 0.186-0.065 0.343-0.195 0.473-0.13 0.13-0.288 0.195-0.474 0.195v0h-2.45c-0.186 0-0.343-0.065-0.473-0.195-0.13-0.13-0.195-0.288-0.195-0.473v0-7.657c0-1.077-0.265-1.921-0.796-2.533-0.527-0.613-1.292-0.919-2.294-0.919v0c-0.965 0-1.735 0.306-2.311 0.919-0.575 0.613-0.863 1.457-0.863 2.533v0 7.657c0 0.186-0.065 0.343-0.195 0.473-0.13 0.13-0.288 0.195-0.473 0.195zM272.335 204.269h-2.645c-0.186 0-0.343-0.065-0.474-0.195-0.13-0.13-0.195-0.288-0.194-0.473v0-18.125c0-0.204 0.065-0.371 0.194-0.502 0.13-0.13 0.288-0.195 0.474-0.194v0h7.461c1.448 0 2.71 0.228 3.787 0.684 1.077 0.453 1.912 1.138 2.506 2.055 0.594 0.921 0.891 2.068 0.891 3.441v0c0 1.392-0.297 2.537-0.891 3.436-0.594 0.902-1.429 1.576-2.506 2.022-1.077 0.445-2.339 0.668-3.787 0.668v0h-4.148v6.515c0 0.186-0.061 0.343-0.184 0.473-0.119 0.13-0.28 0.195-0.484 0.195zM272.947 187.87v6.125h4.065c1.077 0 1.903-0.256 2.478-0.768 0.575-0.509 0.863-1.264 0.863-2.267v0c0-0.928-0.269-1.676-0.807-2.244-0.538-0.564-1.383-0.846-2.534-0.846v0zM290.014 204.269h-2.311c-0.186 0-0.343-0.065-0.473-0.195-0.13-0.13-0.195-0.288-0.195-0.473v0-13.142c0-0.186 0.065-0.343 0.195-0.473 0.13-0.13 0.288-0.195 0.473-0.195v0h2.311c0.204 0 0.366 0.065 0.485 0.195 0.122 0.13 0.184 0.288 0.184 0.473v0 13.142c0 0.186-0.061 0.343-0.184 0.473-0.119 0.13-0.28 0.195-0.485 0.195zM290.126 187.397h-2.534c-0.186 0-0.343-0.065-0.473-0.195-0.13-0.13-0.195-0.288-0.195-0.474v0-2.004c0-0.186 0.065-0.343 0.195-0.473 0.13-0.13 0.288-0.195 0.473-0.195v0h2.534c0.204 0 0.371 0.065 0.501 0.195 0.13 0.13 0.195 0.288 0.195 0.473v0 2.004c0 0.186-0.065 0.343-0.195 0.474-0.13 0.13-0.297 0.195-0.501 0.195zM296.223 204.269h-2.45c-0.167 0-0.312-0.061-0.434-0.184-0.119-0.119-0.178-0.262-0.179-0.429v0c0-0.056 0.013-0.121 0.039-0.194 0.03-0.074 0.082-0.167 0.156-0.279v0l4.734-6.348-4.4-5.958c-0.056-0.093-0.098-0.176-0.128-0.251-0.026-0.074-0.039-0.148-0.039-0.222v0c0-0.167 0.059-0.312 0.179-0.435 0.122-0.119 0.267-0.178 0.434-0.178v0h2.422c0.223 0 0.39 0.056 0.501 0.167 0.111 0.111 0.195 0.213 0.251 0.306v0l3.146 4.177 3.146-4.177c0.074-0.093 0.161-0.195 0.262-0.306 0.104-0.111 0.267-0.167 0.49-0.167v0h2.311c0.167 0 0.31 0.059 0.429 0.178 0.122 0.122 0.184 0.258 0.183 0.407v0c0 0.093-0.015 0.176-0.044 0.25-0.026 0.074-0.067 0.158-0.123 0.251v0l-4.454 6.014 4.761 6.292c0.074 0.111 0.124 0.204 0.15 0.278 0.03 0.074 0.045 0.139 0.044 0.195v0c0 0.167-0.061 0.31-0.183 0.429-0.119 0.122-0.262 0.184-0.429 0.184v0h-2.534c-0.204 0-0.362-0.052-0.473-0.156-0.111-0.1-0.204-0.197-0.278-0.29v0l-3.341-4.426-3.397 4.426c-0.074 0.093-0.163 0.189-0.267 0.29-0.1 0.104-0.262 0.156-0.485 0.156zM316.325 204.547v0c-2.06 0-3.694-0.594-4.9-1.782-1.206-1.188-1.856-2.877-1.949-5.067v0c-0.019-0.186-0.028-0.423-0.028-0.713 0-0.286 0.009-0.512 0.028-0.679v0c0.074-1.411 0.394-2.623 0.958-3.636 0.568-1.01 1.353-1.789 2.355-2.339 1.002-0.546 2.181-0.819 3.536-0.818v0c1.503 0 2.766 0.31 3.786 0.93 1.021 0.624 1.791 1.487 2.311 2.589 0.52 1.106 0.78 2.383 0.78 3.831v0 0.585c0 0.186-0.065 0.343-0.195 0.473-0.13 0.13-0.297 0.195-0.501 0.195v0h-9.244c0 0 0 0.028 0 0.083 0 0.056 0 0.102 0 0.14v0c0.019 0.65 0.143 1.247 0.373 1.793 0.234 0.549 0.577 0.991 1.031 1.325 0.457 0.334 1 0.501 1.631 0.501v0c0.52 0 0.956-0.08 1.309-0.239 0.353-0.156 0.64-0.336 0.863-0.541 0.223-0.204 0.381-0.371 0.473-0.501v0c0.167-0.223 0.301-0.358 0.401-0.406 0.104-0.045 0.258-0.067 0.462-0.067v0h2.395c0.186 0 0.338 0.056 0.456 0.167 0.122 0.111 0.174 0.251 0.156 0.418v0c-0.019 0.297-0.173 0.659-0.462 1.086-0.286 0.427-0.698 0.845-1.236 1.252-0.538 0.408-1.212 0.746-2.022 1.014-0.806 0.271-1.728 0.406-2.767 0.406zM313.262 195.694v0.083h6.153v-0.083c0-0.724-0.121-1.359-0.362-1.905-0.241-0.549-0.594-0.978-1.058-1.286-0.464-0.304-1.021-0.457-1.67-0.457v0c-0.65 0-1.206 0.152-1.671 0.457-0.464 0.308-0.813 0.737-1.046 1.286-0.23 0.546-0.345 1.181-0.346 1.905zM329.16 204.269h-2.311c-0.186 0-0.343-0.065-0.473-0.195-0.13-0.13-0.195-0.288-0.195-0.473v0-18.432c0-0.186 0.065-0.343 0.195-0.473 0.13-0.13 0.288-0.195 0.473-0.195v0h2.311c0.186 0 0.343 0.065 0.473 0.195 0.13 0.13 0.195 0.288 0.195 0.473v0 18.432c0 0.186-0.065 0.343-0.195 0.473-0.13 0.13-0.288 0.195-0.473 0.195zM339.016 204.547v0c-1.114 0-2.066-0.13-2.856-0.389-0.787-0.26-1.431-0.585-1.933-0.975-0.501-0.39-0.872-0.78-1.113-1.169-0.241-0.39-0.371-0.715-0.39-0.975v0c-0.019-0.204 0.041-0.368 0.178-0.49 0.141-0.119 0.295-0.178 0.462-0.178v0h2.2c0.074 0 0.139 0.009 0.195 0.028 0.056 0.019 0.13 0.074 0.222 0.167v0c0.241 0.204 0.496 0.418 0.763 0.64 0.271 0.223 0.592 0.412 0.964 0.568 0.371 0.16 0.835 0.239 1.392 0.24v0c0.724 0 1.331-0.145 1.821-0.435 0.494-0.286 0.741-0.698 0.74-1.236v0c0-0.39-0.108-0.705-0.323-0.946-0.212-0.241-0.605-0.46-1.18-0.657-0.575-0.193-1.392-0.401-2.45-0.624v0c-1.039-0.241-1.903-0.548-2.59-0.919-0.687-0.371-1.197-0.835-1.531-1.392-0.334-0.557-0.501-1.206-0.501-1.949v0c0-0.724 0.217-1.416 0.651-2.077 0.438-0.657 1.088-1.199 1.949-1.626 0.865-0.427 1.938-0.64 3.219-0.64v0c1.002 0 1.875 0.124 2.617 0.373 0.742 0.252 1.359 0.564 1.849 0.935 0.494 0.371 0.871 0.746 1.13 1.125 0.26 0.382 0.399 0.713 0.418 0.991v0c0.019 0.204-0.037 0.366-0.167 0.485-0.13 0.122-0.278 0.184-0.446 0.183v0h-2.06c-0.093 0-0.176-0.019-0.251-0.055-0.074-0.037-0.148-0.084-0.222-0.139v0c-0.204-0.186-0.427-0.386-0.669-0.602-0.241-0.212-0.535-0.392-0.88-0.54-0.342-0.148-0.791-0.223-1.347-0.223v0c-0.705 0-1.244 0.152-1.615 0.457-0.371 0.308-0.557 0.694-0.557 1.158v0c0 0.316 0.087 0.59 0.262 0.824 0.178 0.23 0.536 0.447 1.075 0.652 0.538 0.204 1.355 0.418 2.45 0.64v0c1.244 0.223 2.231 0.551 2.962 0.986 0.735 0.438 1.255 0.939 1.559 1.503 0.308 0.568 0.462 1.195 0.462 1.882v0c0 0.835-0.247 1.587-0.74 2.256-0.49 0.668-1.214 1.192-2.172 1.57-0.954 0.382-2.136 0.574-3.547 0.573z" fill="#000000" fill-rule="nonzero" stroke="none" stroke-width="1" stroke-linecap="butt" stroke-linejoin="miter" stroke-miterlimit="10" stroke-dasharray="" stroke-dashoffset="0" font-family="none" font-weight="none" font-size="none" text-anchor="none" style="mix-blend-mode: normal" data-fill-palette-color="secondary" id="text-1"></path></g></g><g transform="matrix(1,0,0,1,29.33176499999999,51.42288985577531)"><svg viewBox="0 0 316.416 53.964890288449425" height="53.964890288449425" width="316.416"><g><svg viewBox="0 0 316.416 53.964890288449425" height="53.964890288449425" width="316.416"><g><svg viewBox="0 0 316.416 53.964890288449425" height="53.964890288449425" width="316.416"><g><svg viewBox="0 0 316.416 53.964890288449425" height="53.964890288449425" width="316.416"><g id="textblocktransform"><svg viewBox="0 0 316.416 53.964890288449425" height="53.964890288449425" width="316.416" id="textblock"><g><svg viewBox="0 0 316.416 53.964890288449425" height="53.964890288449425" width="316.416"><g transform="matrix(1,0,0,1,0,0)"><svg width="316.416" viewBox="2.49 -32.64 193.79999999999998 33.06" height="53.964890288449425" data-palette-color="#000000"><path d="M16.46 0.24Q9.33 0.24 5.91-3.52 2.49-7.28 2.49-15.21L2.49-15.21Q2.49-30.66 16.53-30.66L16.53-30.66Q18.58-30.66 20.51-30.24 22.44-29.81 23.63-29.17 24.83-28.54 24.83-27.95L24.83-27.95Q24.83-27.59 24.57-26.98 24.32-26.37 23.97-25.9 23.63-25.44 23.36-25.44L23.36-25.44Q23.24-25.44 22.68-25.76L22.68-25.76Q21.41-26.44 20.02-26.9 18.63-27.37 16.63-27.37L16.63-27.37Q11.38-27.37 8.9-24.45 6.42-21.53 6.42-15.16L6.42-15.16Q6.42-8.94 8.87-5.99 11.33-3.05 16.46-3.05L16.46-3.05Q18.6-3.05 20.14-3.56 21.68-4.08 23.1-4.83L23.1-4.83Q23.78-5.2 23.93-5.2L23.93-5.2Q24.19-5.2 24.55-4.74 24.9-4.27 25.17-3.7 25.44-3.13 25.44-2.88L25.44-2.88Q25.44-2.27 24.21-1.53 22.97-0.78 20.91-0.27 18.85 0.24 16.46 0.24L16.46 0.24ZM32.61 0.07Q30.88 0.07 30.88-0.88L30.88-0.88 30.88-31.69Q30.88-32.64 32.61-32.64L32.61-32.64 32.79-32.64Q34.54-32.64 34.54-31.69L34.54-31.69 34.54-19.97Q35.81-21.26 37.52-22.11 39.23-22.95 41.16-22.95L41.16-22.95Q43.89-22.95 45.98-21.41 48.07-19.87 48.07-15.94L48.07-15.94 48.07-0.88Q48.07 0.07 46.34 0.07L46.34 0.07 46.16 0.07Q44.41 0.07 44.41-0.88L44.41-0.88 44.41-15.58Q44.41-17.55 43.28-18.68 42.16-19.8 39.99-19.8L39.99-19.8Q38.55-19.8 37.34-19.12 36.13-18.43 35.34-17.64 34.54-16.85 34.54-16.75L34.54-16.75 34.54-0.88Q34.54 0.07 32.79 0.07L32.79 0.07 32.61 0.07ZM60.96 0.24Q57.64 0.24 55.59-1.39 53.54-3.03 53.54-6.25L53.54-6.25Q53.54-9.64 55.61-11.36 57.69-13.09 60.68-13.59 63.67-14.09 67.94-14.16L67.94-14.16 67.94-16.21Q67.94-17.85 66.83-18.84 65.72-19.82 63.18-19.82L63.18-19.82Q61.25-19.82 59.8-19.37 58.34-18.92 57.08-18.29L57.08-18.29Q56.54-18.02 56.42-18.02L56.42-18.02Q56.12-18.02 55.77-18.44 55.41-18.87 55.16-19.41 54.9-19.95 54.9-20.19L54.9-20.19Q54.9-20.75 56.06-21.41 57.22-22.07 59.1-22.51 60.98-22.95 63.03-22.95L63.03-22.95Q67.11-22.95 69.36-21.17 71.6-19.38 71.6-16.16L71.6-16.16 71.6-6.42Q71.6-3.59 71.86-2.33 72.11-1.07 72.11-0.95L72.11-0.95Q72.11-0.42 71.3-0.18 70.48 0.05 69.77 0.05L69.77 0.05Q69.18 0.05 68.9-0.61 68.62-1.27 68.35-2.51L68.35-2.51 68.26-3Q66.91-1.51 65.1-0.63 63.28 0.24 60.96 0.24L60.96 0.24ZM61.15-2.91Q63.3-2.91 64.81-3.69 66.33-4.47 67.94-5.91L67.94-5.91 67.94-11.04Q64.72-11.01 62.64-10.77 60.57-10.52 59-9.53 57.44-8.54 57.44-6.47L57.44-6.47Q57.44-4.74 58.38-3.82 59.32-2.91 61.15-2.91L61.15-2.91ZM80.58-28.17Q78.85-28.17 78.85-29.13L78.85-29.13 78.85-31.69Q78.85-32.64 80.58-32.64L80.58-32.64 81.1-32.64Q82.85-32.64 82.85-31.69L82.85-31.69 82.85-29.13Q82.85-28.17 81.1-28.17L81.1-28.17 80.58-28.17ZM80.75 0.07Q79.02 0.07 79.02-0.88L79.02-0.88 79.02-21.83Q79.02-22.78 80.75-22.78L80.75-22.78 80.93-22.78Q82.68-22.78 82.68-21.83L82.68-21.83 82.68-0.88Q82.68 0.07 80.93 0.07L80.93 0.07 80.75 0.07ZM91.98 0.07Q91.08 0.07 90.68-0.16 90.27-0.39 90.27-0.88L90.27-0.88 90.27-29.08Q90.27-29.79 90.58-30.08 90.88-30.37 91.57-30.37L91.57-30.37 100.36-30.37Q104.16-30.37 107.11-28.55 110.05-26.73 110.05-21.88L110.05-21.88Q110.05-18.26 108.36-16.27 106.68-14.28 104.58-13.61 102.48-12.94 100.8-12.94L100.8-12.94 94.06-12.94 94.06-0.88Q94.06-0.39 93.64-0.16 93.23 0.07 92.35 0.07L92.35 0.07 91.98 0.07ZM94.06-16.24L100.84-16.24Q101.94-16.24 103.14-16.71 104.34-17.19 105.21-18.44 106.09-19.7 106.09-21.88L106.09-21.88Q106.09-24.78 104.37-25.93 102.65-27.08 100.23-27.08L100.23-27.08 94.06-27.08 94.06-16.24ZM116.83-28.17Q115.1-28.17 115.1-29.13L115.1-29.13 115.1-31.69Q115.1-32.64 116.83-32.64L116.83-32.64 117.35-32.64Q119.1-32.64 119.1-31.69L119.1-31.69 119.1-29.13Q119.1-28.17 117.35-28.17L117.35-28.17 116.83-28.17ZM117 0.07Q115.27 0.07 115.27-0.88L115.27-0.88 115.27-21.83Q115.27-22.78 117-22.78L117-22.78 117.18-22.78Q118.93-22.78 118.93-21.83L118.93-21.83 118.93-0.88Q118.93 0.07 117.18 0.07L117.18 0.07 117 0.07ZM125.55 0.07Q124.55 0.07 124.12-0.1 123.69-0.27 123.69-0.66L123.69-0.66Q123.69-0.95 124.03-1.44L124.03-1.44 131.06-11.62 124.55-21.29Q124.23-21.78 124.23-22.05L124.23-22.05Q124.23-22.44 124.67-22.61 125.11-22.78 126.18-22.78L126.18-22.78 126.6-22.78Q127.33-22.78 127.77-22.64 128.21-22.51 128.48-22.12L128.48-22.12 132.6-15.94Q132.97-15.36 133.48-14.4L133.48-14.4Q133.58-14.58 133.82-14.99 134.07-15.41 134.41-15.94L134.41-15.94 138.56-22.19Q138.95-22.78 140.51-22.78L140.51-22.78 140.68-22.78Q141.68-22.78 142.1-22.61 142.51-22.44 142.51-22.05L142.51-22.05Q142.51-21.75 142.17-21.29L142.17-21.29 135.63-11.74 142.64-1.44Q143-0.9 143-0.66L143-0.66Q143-0.29 142.54-0.11 142.07 0.07 141 0.07L141 0.07 140.61 0.07Q139.85 0.07 139.43-0.06 139-0.2 138.75-0.59L138.75-0.59 134.14-7.47Q133.75-8.06 133.53-8.46 133.31-8.86 133.24-8.98L133.24-8.98Q133.19-8.89 132.96-8.48 132.72-8.08 132.31-7.47L132.31-7.47 127.65-0.54Q127.23 0.07 125.69 0.07L125.69 0.07 125.55 0.07ZM156.89 0.24Q151.5 0.24 148.87-2.58 146.25-5.4 146.25-11.21L146.25-11.21Q146.25-16.97 148.81-19.96 151.37-22.95 156.35-22.95L156.35-22.95Q160.8-22.95 163.06-20.07 165.31-17.19 165.31-11.62L165.31-11.62Q165.31-11.38 165.06-10.95 164.8-10.52 164.45-10.19 164.09-9.86 163.85-9.86L163.85-9.86 150.15-9.86Q150.42-6.23 152.02-4.55 153.62-2.88 156.84-2.88L156.84-2.88Q158.65-2.88 159.96-3.32 161.26-3.76 162.48-4.39L162.48-4.39Q162.6-4.44 162.85-4.57 163.09-4.69 163.19-4.69L163.19-4.69Q163.46-4.69 163.81-4.26 164.17-3.83 164.42-3.31 164.68-2.78 164.68-2.54L164.68-2.54Q164.68-2 163.61-1.34 162.53-0.68 160.74-0.22 158.94 0.24 156.89 0.24L156.89 0.24ZM150.15-12.99L161.43-12.99Q161.43-19.82 156.23-19.82L156.23-19.82Q150.64-19.82 150.15-12.99L150.15-12.99ZM176.42 0.24Q174.25 0.24 172.54-1.07 170.83-2.39 170.83-5.74L170.83-5.74 170.83-31.69Q170.83-32.64 172.56-32.64L172.56-32.64 172.76-32.64Q174.47-32.64 174.47-31.69L174.47-31.69 174.47-6.08Q174.47-4.3 175.1-3.59 175.74-2.88 176.81-2.88L176.81-2.88Q177.62-2.88 178.08-2.98 178.54-3.08 178.69-3.08L178.69-3.08Q179.08-3.08 179.34-2.29 179.59-1.51 179.59-1.05L179.59-1.05Q179.59 0.24 176.42 0.24L176.42 0.24ZM188.6 0.42Q186.77 0.42 185.18-0.05 183.6-0.51 182.66-1.18 181.72-1.86 181.72-2.37L181.72-2.37Q181.72-2.61 181.97-3.15 182.23-3.69 182.58-4.11 182.94-4.54 183.23-4.54L183.23-4.54Q183.3-4.54 183.67-4.3L183.67-4.3Q184.65-3.66 185.73-3.22 186.82-2.78 188.33-2.78L188.33-2.78Q192.58-2.78 192.58-6.3L192.58-6.3Q192.58-7.3 192.18-7.98 191.77-8.67 190.83-9.19 189.89-9.72 188.26-10.21L188.26-10.21Q185.92-10.89 184.61-11.77 183.3-12.65 182.77-13.83 182.23-15.01 182.23-16.7L182.23-16.7Q182.23-18.51 183.14-19.95 184.06-21.39 185.71-22.19 187.36-23 189.43-23L189.43-23Q190.87-23 192.2-22.73 193.53-22.46 194.35-22.03 195.17-21.61 195.17-21.14L195.17-21.14Q195.17-20.8 194.94-20.23 194.7-19.65 194.36-19.23 194.02-18.8 193.75-18.8L193.75-18.8Q193.7-18.8 193.14-19.1 192.58-19.41 191.71-19.67 190.85-19.92 189.8-19.92L189.8-19.92Q188.14-19.92 187.05-19.18 185.96-18.43 185.96-17.19L185.96-17.19Q185.96-15.72 186.75-14.84 187.53-13.96 189.33-13.4L189.33-13.4Q192.12-12.55 193.58-11.69 195.05-10.84 195.67-9.61 196.29-8.37 196.29-6.37L196.29-6.37Q196.29-4.47 195.27-2.92 194.24-1.37 192.48-0.48 190.72 0.42 188.6 0.42L188.6 0.42Z" opacity="1" transform="matrix(1,0,0,1,0,0)" fill="#000000" class="wordmark-text-0" data-fill-palette-color="primary" id="text-0"></path></svg></g></svg></g></svg></g></svg></g><g></g></svg></g></svg></g></svg></g></svg></g><defs></defs></svg><rect width="375.07953" height="156.81067000000004" fill="none" stroke="none" visibility="hidden"></rect></g></svg></g></svg>